# xmcd CD database file
#
# Track frame offsets:
#	187
#	19725
#	39300
#
# Disc length: 781 seconds
#
# Revision: 0
# Processed by: cddbd v1.5.1PL0 Copyright (c) Steve Scherf et al.
# Submitted via: CDex 1.51
#
DISCID=18030b03
DTITLE=chihiro - Honey
DYEAR=1999
DGENRE=Anime
TTITLE0=Honey
TTITLE1=Honey(オリジナル・カラオケ)
TTITLE2=Honey(さくらバージョン)
EXTD=YEAR: 1999
EXTT0=
EXTT1=
EXTT2=
PLAYORDER=
